<svg xmlns="http://www.w3.org/2000/svg" width="1600" height="1000" viewBox="0 0 1600 1000">
  <rect width="1600" height="1000" fill="#f5f7fb"/>
  <text x="70" y="98" font-size="44" font-family="Arial, Helvetica, sans-serif" font-weight="700" fill="#111827">Portfolio Lens</text>
  <text x="70" y="128" font-size="24" font-family="Arial, Helvetica, sans-serif" fill="#6b7280">Natural-language portfolio insight panel</text>

  <rect x="70" y="150" rx="28" ry="28" width="300" height="780" fill="#ffffff" stroke="#d8deea"/>
  <text x="95" y="200" font-size="30" font-family="Arial, Helvetica, sans-serif" font-weight="700" fill="#111827">Prompt History</text>

  <rect x="95" y="246" rx="18" ry="18" width="250" height="72" fill="#f8fafc" stroke="#d8deea"/>
  <text x="115" y="281" font-size="18" font-family="Arial, Helvetica, sans-serif" fill="#111827">Largest position</text>
  <text x="115" y="305" font-size="18" font-family="Arial, Helvetica, sans-serif" fill="#6b7280">AAPL</text>

  <rect x="95" y="336" rx="18" ry="18" width="250" height="72" fill="#f8fafc" stroke="#d8deea"/>
  <text x="115" y="371" font-size="18" font-family="Arial, Helvetica, sans-serif" fill="#111827">Largest sector</text>
  <text x="115" y="395" font-size="18" font-family="Arial, Helvetica, sans-serif" fill="#6b7280">Technology</text>

  <rect x="95" y="426" rx="18" ry="18" width="250" height="72" fill="#f8fafc" stroke="#d8deea"/>
  <text x="115" y="461" font-size="18" font-family="Arial, Helvetica, sans-serif" fill="#111827">Top 2 holdings</text>
  <text x="115" y="485" font-size="18" font-family="Arial, Helvetica, sans-serif" fill="#6b7280">AAPL + MSFT</text>

  <rect x="95" y="516" rx="18" ry="18" width="250" height="72" fill="#f5f8ff" stroke="#c9d6ff"/>
  <text x="115" y="553" font-size="18" font-family="Arial, Helvetica, sans-serif" fill="#111827">Concentration read</text>

  <rect x="410" y="150" rx="28" ry="28" width="1120" height="780" fill="#ffffff" stroke="#d8deea"/>
  <text x="435" y="200" font-size="30" font-family="Arial, Helvetica, sans-serif" font-weight="700" fill="#111827">Insight Result</text>

  <rect x="475" y="250" rx="24" ry="24" width="990" height="104" fill="#f5f8ff" stroke="#c9d6ff"/>
  <text x="505" y="295" font-size="18" font-family="Arial, Helvetica, sans-serif" font-weight="700" fill="#6b7280">Current question</text>
  <text x="505" y="332" font-size="28" font-family="Arial, Helvetica, sans-serif" font-weight="700" fill="#111827">Portfolio concentration summary</text>

  <rect x="505" y="392" rx="24" ry="24" width="960" height="420" fill="#ffffff" stroke="#d8deea"/>
  <text x="535" y="438" font-size="18" font-family="Arial, Helvetica, sans-serif" font-weight="700" fill="#6b7280">Key answer</text>
  <text x="535" y="482" font-size="30" font-family="Arial, Helvetica, sans-serif" font-weight="700" fill="#111827">The portfolio is moderately concentrated in technology.</text>

  <text x="535" y="530" font-size="18" font-family="Arial, Helvetica, sans-serif" fill="#111827">Technology exposure: 47.13 percent of total value</text>
  <text x="535" y="568" font-size="18" font-family="Arial, Helvetica, sans-serif" fill="#111827">Largest holding: AAPL at 24.08 percent</text>
  <text x="535" y="606" font-size="18" font-family="Arial, Helvetica, sans-serif" fill="#111827">Top two positions: AAPL and MSFT at 47.13 percent combined</text>
  <text x="535" y="644" font-size="18" font-family="Arial, Helvetica, sans-serif" fill="#111827">Other exposures: Health Care 20.28, Financial Services 18.11, Consumer Goods 14.48</text>

  <text x="535" y="714" font-size="18" font-family="Arial, Helvetica, sans-serif" fill="#111827">Suggested watch item: reduce tech weight or add another uncorrelated sector</text>

  <rect x="505" y="838" rx="18" ry="18" width="295" height="64" fill="#f8fafc" stroke="#d8deea"/>
  <text x="530" y="871" font-size="16" font-family="Arial, Helvetica, sans-serif" fill="#6b7280">Data source</text>
  <text x="530" y="896" font-size="16" font-family="Arial, Helvetica, sans-serif" font-weight="700" fill="#111827">Public prices and company profile</text>

  <rect x="825" y="838" rx="18" ry="18" width="295" height="64" fill="#f8fafc" stroke="#d8deea"/>
  <text x="850" y="871" font-size="16" font-family="Arial, Helvetica, sans-serif" fill="#6b7280">As of</text>
  <text x="850" y="896" font-size="16" font-family="Arial, Helvetica, sans-serif" font-weight="700" fill="#111827">Apr 20, 2026 market close</text>

  <rect x="1145" y="838" rx="18" ry="18" width="295" height="64" fill="#f8fafc" stroke="#d8deea"/>
  <text x="1170" y="871" font-size="16" font-family="Arial, Helvetica, sans-serif" fill="#6b7280">Mode</text>
  <text x="1170" y="896" font-size="16" font-family="Arial, Helvetica, sans-serif" font-weight="700" fill="#111827">Prototype demo</text>
</svg>
